<svg width="21" height="24" viewBox="0 0 21 24" fill="none" xmlns="http://www.w3.org/2000/svg">
<g id="Group 1171277043">
<path id="Vector 5026" d="M6.44922 16.1377L0.957275 16.1377" stroke="white" stroke-width="1.37299" stroke-linecap="round" stroke-linejoin="round"/>
<path id="Vector 5027" d="M8.60742 5.16797L4.94613 5.16797" stroke="white" stroke-width="1.37299" stroke-linecap="round" stroke-linejoin="round"/>
<g id="Group 1171277041">
<path id="Vector 7339" d="M19.4043 9.9677L19.4043 1.05157C19.4043 1.01554 19.3645 0.986328 19.3285 0.986328C17.4909 0.986328 16.0118 2.47598 16.0118 4.31357L16.0118 6.7057C16.0118 8.54328 17.5015 10.0329 19.3391 10.0329C19.3751 10.0329 19.4043 10.0037 19.4043 9.9677Z" stroke="white" stroke-width="1.29061"/>
<path id="Vector 7340" d="M16.0117 7.20605L12.6192 10.5985" stroke="white" stroke-width="1.29061"/>
<path id="Vector 7341" d="M18.1274 12.576L10.8831 9.72217C9.61144 9.22122 8.70742 10.9864 9.85711 11.7255L15.4974 15.3514C15.821 15.5595 16.0167 15.9178 16.0167 16.3026V21.3394C16.0167 21.9639 16.523 22.4702 17.1475 22.4702H17.7129C18.3375 22.4702 18.8438 21.9639 18.8438 21.3394V13.6281C18.8438 13.1636 18.5596 12.7463 18.1274 12.576Z" stroke="white" stroke-width="1.29061"/>
<path id="Vector 7342" d="M7.93622 18.1486C7.57983 18.1486 7.29092 18.4376 7.29092 18.7939C7.29092 19.1503 7.57983 19.4392 7.93622 19.4392L7.93622 18.1486ZM15.9141 18.1486L7.93622 18.1486L7.93622 19.4392L15.9141 19.4392L15.9141 18.1486Z" fill="white"/>
</g>
</g>
</svg>
