<svg xmlns="http://www.w3.org/2000/svg" width="20.5" height="21.5" viewBox="0 0 20.5 21.5">
  <g id="Group_109565" data-name="Group 109565" transform="translate(-1.75 -1.25)">
    <path id="Path_198841" data-name="Path 198841" d="M18,2V4M6,2V4" fill="none" stroke="#8d8d8d" stroke-linecap="round" stroke-linejoin="round" stroke-width="1.5"/>
    <path id="Path_198842" data-name="Path 198842" d="M12,13H12M12,17H12m3.986-4H16M8,13h.009M8,17h.009" fill="none" stroke="#8d8d8d" stroke-linecap="round" stroke-linejoin="round" stroke-width="2"/>
    <path id="Path_198843" data-name="Path 198843" d="M3.5,8h17" fill="none" stroke="#8d8d8d" stroke-linecap="round" stroke-linejoin="round" stroke-width="1.5"/>
    <path id="Path_198844" data-name="Path 198844" d="M2.5,12.243c0-4.357,0-6.536,1.252-7.89S7.019,3,11.05,3h1.9c4.03,0,6.046,0,7.3,1.354S21.5,7.886,21.5,12.243v.514c0,4.357,0,6.536-1.252,7.89S16.98,22,12.95,22h-1.9C7.019,22,5,22,3.752,20.646S2.5,17.114,2.5,12.757Z" fill="none" stroke="#8d8d8d" stroke-linecap="round" stroke-linejoin="round" stroke-width="1.5"/>
    <path id="Path_198845" data-name="Path 198845" d="M3,8H21" fill="none" stroke="#8d8d8d" stroke-linecap="round" stroke-linejoin="round" stroke-width="1.5"/>
  </g>
</svg>
