<svg xmlns="http://www.w3.org/2000/svg" width="21.5" height="19.5" viewBox="0 0 21.5 19.5">
  <g id="Group_110005" data-name="Group 110005" transform="translate(-1.25 -2.25)">
    <path id="Path_198959" data-name="Path 198959" d="M16,14a1.5,1.5,0,1,0,1.5-1.5A1.5,1.5,0,0,0,16,14Z" fill="none" stroke="#fff" stroke-width="1.5"/>
    <path id="Path_198960" data-name="Path 198960" d="M10,7h6c2.828,0,4.243,0,5.121.879S22,10.172,22,13v2c0,2.828,0,4.243-.879,5.121S18.828,21,16,21H10c-3.771,0-5.657,0-6.828-1.172S2,16.771,2,13V11C2,7.229,2,5.343,3.172,4.172S6.229,3,10,3h4a7.518,7.518,0,0,1,1.776.1A3,3,0,0,1,17.9,5.224,7.52,7.52,0,0,1,18,7" fill="none" stroke="#fff" stroke-linecap="round" stroke-width="1.5"/>
  </g>
</svg>
