<svg xmlns="http://www.w3.org/2000/svg" width="48.485" height="47.642" viewBox="0 0 48.485 47.642">
  <g id="Group_110148" data-name="Group 110148" transform="translate(-67.485 -1974.5)">
    <ellipse id="Ellipse_476" data-name="Ellipse 476" cx="24.243" cy="23.821" rx="24.243" ry="23.821" transform="translate(67.485 1974.5)" fill="#fff"/>
    <g id="Group_109583" data-name="Group 109583" transform="translate(36.109 1989.5)">
      <path id="Path_198853" data-name="Path 198853" d="M80.27,48.237a7.284,7.284,0,1,1,6.954-7.277A7.13,7.13,0,0,1,80.27,48.237Zm0-12.887a5.616,5.616,0,1,0,5.362,5.61A5.5,5.5,0,0,0,80.27,35.35Z" transform="translate(-32.94 -30.026)" fill="#009af1"/>
      <path id="Path_198859" data-name="Path 198859" d="M56.84,18.211a6.884,6.884,0,0,1-6.713-7.024A6.884,6.884,0,0,1,56.84,4.163h1.667V5.829H56.84a5.256,5.256,0,0,0-5.126,5.363,5.131,5.131,0,1,0,10.251,0V0h1.587V11.187A6.884,6.884,0,0,1,56.84,18.211Z" transform="translate(7.247)" fill="#1c1b1e"/>
    </g>
  </g>
</svg>
