<svg xmlns="http://www.w3.org/2000/svg" width="19.5" height="21.5" viewBox="0 0 19.5 21.5">
  <g id="Group_110200" data-name="Group 110200" transform="translate(19035.75 -2843.25)">
    <g id="Group_110201" data-name="Group 110201" transform="translate(-19038 2842)">
      <path id="Path_199030" data-name="Path 199030" d="M19.5,5.5l-.62,10.025c-.158,2.561-.238,3.842-.88,4.763a4,4,0,0,1-1.2,1.128C15.842,22,14.559,22,11.993,22s-3.854,0-4.814-.585a4,4,0,0,1-1.2-1.13c-.642-.922-.719-2.2-.874-4.77L4.5,5.5" fill="none" stroke="#ff5858" stroke-linecap="round" stroke-width="1.5"/>
      <path id="Path_199031" data-name="Path 199031" d="M3,5.5H21m-4.944,0-.683-1.408A4.447,4.447,0,0,0,14.3,2.4a1.994,1.994,0,0,0-.275-.172A4.447,4.447,0,0,0,12.035,2,4.463,4.463,0,0,0,10,2.234a2,2,0,0,0-.278.179A4.463,4.463,0,0,0,8.659,4.171L8.053,5.5" fill="none" stroke="#ff5858" stroke-linecap="round" stroke-width="1.5"/>
      <path id="Path_199032" data-name="Path 199032" d="M9.5,16.5v-6" fill="none" stroke="#ff5858" stroke-linecap="round" stroke-width="1.5"/>
      <path id="Path_199033" data-name="Path 199033" d="M14.5,16.5v-6" fill="none" stroke="#ff5858" stroke-linecap="round" stroke-width="1.5"/>
    </g>
  </g>
</svg>
