<svg xmlns="http://www.w3.org/2000/svg" width="60" height="60" viewBox="0 0 60 60">
  <g id="Group_109946" data-name="Group 109946" transform="translate(-1078 -241)">
    <circle id="Ellipse_394" data-name="Ellipse 394" cx="30" cy="30" r="30" transform="translate(1078 241)" fill="#fff"/>
    <g id="Group_109574" data-name="Group 109574" transform="translate(1096 260.502)">
      <path id="Path_198848" data-name="Path 198848" d="M3.966,5.8l.6-1.4c.5-1.163.751-1.744,1.242-2.071A4.321,4.321,0,0,1,8.177,2h7.647a4.321,4.321,0,0,1,2.365.326c.491.326.741.908,1.242,2.071l.6,1.4c.817,1.9,1.225,2.844.788,3.523S19.366,10,17.329,10H6.671c-2.038,0-3.056,0-3.494-.679S3.149,7.694,3.966,5.8Z" fill="none" stroke="#000" stroke-linecap="round" stroke-linejoin="round" stroke-width="1.5"/>
      <path id="Path_198849" data-name="Path 198849" d="M4.5,10v5c0,1.886,0,2.828.586,3.414.472.472,1.174.563,2.414.582m12-9v5c0,1.886,0,2.828-.586,3.414-.472.472-1.174.563-2.414.582" fill="none" stroke="#000" stroke-linejoin="round" stroke-width="1.5"/>
      <path id="Path_198853" data-name="Path 198853" d="M4.5,10v9.438" transform="translate(26.75 14.496) rotate(90)" fill="none" stroke="#000" stroke-linejoin="round" stroke-width="1.5"/>
      <path id="Path_198851" data-name="Path 198851" d="M10,2,9,10m5-8,1,8" fill="none" stroke="#000" stroke-linecap="round" stroke-linejoin="round" stroke-width="1.5"/>
      <path id="Path_198852" data-name="Path 198852" d="M4,6H20" fill="none" stroke="#000" stroke-linecap="round" stroke-linejoin="round" stroke-width="1.5"/>
    </g>
  </g>
</svg>
