<svg xmlns="http://www.w3.org/2000/svg" width="18.595" height="18.562" viewBox="0 0 18.595 18.562">
  <g id="Group_110078" data-name="Group 110078" transform="translate(-1.212 -1.25)">
    <path id="Path_198899" data-name="Path 198899" d="M10.952,20.82H5.914a4.743,4.743,0,0,1-3.306-1.537c-1.926-1.835,1.236-3.3,2.442-4.02a9.086,9.086,0,0,1,6.328-1.1" transform="translate(0 -1.77)" fill="none" stroke="#fff" stroke-linecap="round" stroke-linejoin="round" stroke-width="1.5"/>
    <path id="Path_198900" data-name="Path 198900" d="M14.173,5.836A3.836,3.836,0,1,1,10.336,2,3.836,3.836,0,0,1,14.173,5.836Z" transform="translate(-0.664)" fill="none" stroke="#fff" stroke-width="1.5"/>
    <path id="Path_198901" data-name="Path 198901" d="M18,14.493l.6,1.21a.742.742,0,0,0,.484.361l1.088.182c.7.117.859.626.358,1.128l-.846.853a.751.751,0,0,0-.177.622l.242,1.055c.191.835-.249,1.159-.982.722l-1.02-.608a.731.731,0,0,0-.675,0l-1.02.608c-.73.437-1.173.11-.982-.722l.242-1.055a.751.751,0,0,0-.177-.622l-.846-.853c-.5-.5-.338-1.011.358-1.128l1.088-.182a.744.744,0,0,0,.481-.361l.6-1.21C17.143,13.836,17.675,13.836,18,14.493Z" transform="translate(-1.77 -1.77)" fill="none" stroke="#fff" stroke-linecap="round" stroke-linejoin="round" stroke-width="1.5"/>
  </g>
</svg>
