<svg xmlns="http://www.w3.org/2000/svg" width="324.42" height="452.83" viewBox="0 0 324.42 452.83">
  <g id="Group_100290" data-name="Group 100290" transform="translate(-5583.75 -8196.17)">
    <g id="Group_99936" data-name="Group 99936" transform="translate(-644 7484.17)">
      <path id="Path_190391" data-name="Path 190391" d="M6552.17,1154.35l-11.85,7.03-19.29-25.68,11.85-7.03Z" fill="#ff8b7b"/>
      <path id="Path_190392" data-name="Path 190392" d="M6521.04,1135.7l9.94,13.24,11.87-7.03-9.95-13.24Z" opacity="0.2"/>
      <path id="Path_190393" data-name="Path 190393" d="M6446.4,807.55c-1.81,10.47-4.1,20.517-6.89,30.661q-2.084,7.589-4.6,15.127c-.88,2.524-1.71,5.031-2.71,7.539-.47,1.254-.94,2.508-1.48,3.761l-.76,1.889-.4.928-.21.505-.29.635a45.214,45.214,0,0,1-4.88,8.142c-1.63,2.295-3.41,4.412-5.15,6.513-3.48,4.1-7.12,7.913-10.8,11.658a297.42,297.42,0,0,1-23.15,20.956l-7.34-7.311c6.27-7.962,12.58-16.006,18.69-23.968,3.04-3.973,6.01-8.011,8.78-12,1.38-1.986,2.7-3.989,3.85-5.943a33.143,33.143,0,0,0,2.68-5.243c.09-.2.32-.977.5-1.5l.55-1.726c.39-1.124.74-2.3,1.08-3.468.7-2.329,1.35-4.706,2.02-7.067,1.27-4.771,2.46-9.591,3.61-14.443,2.25-9.77,4.41-19.637,6.37-29.309Z" fill="#ff8b7b"/>
      <path id="Path_190394" data-name="Path 190394" d="M6451.27,809.458c-.83,15.73-8.45,37.809-8.45,37.809l-21.4-8.141-8.81-3.257a124.554,124.554,0,0,1,7.36-30.433c6.52-16.771,21.61-20.858,29.31-8.516C6451.07,799.705,6451.55,804.231,6451.27,809.458Z"/>
      <path id="Path_190395" data-name="Path 190395" d="M6451.27,809.456c-.83,15.729-8.45,37.809-8.45,37.809l-21.4-8.141a120.639,120.639,0,0,1,4.99-16.316C6431.75,808.837,6443.15,803.676,6451.27,809.456Z" opacity="0.2"/>
      <path id="Path_190396" data-name="Path 190396" d="M6381.2,907.008l-14.52,2.377-.11,14.248s13.93-1.954,19.39-8.63Z" fill="#ff8b7b"/>
      <path id="Path_190397" data-name="Path 190397" d="M6353.23,917.642l.31,9.363,13.02-3.371.1-14.247Z" fill="#ff8b7b"/>
      <path id="Path_190398" data-name="Path 190398" d="M6435.98,909.386s-20.69,75.342-26.18,117.514c-5.7,43.87,7.75,137.93,7.75,137.93l24.9-.53s1.87-95.89,10.01-139.03c8.92-47.007,25.92-116.8,25.92-116.8Z" fill="#263238"/>
      <path id="Path_190399" data-name="Path 190399" d="M6461.72,908.831s0,74.022,1.94,116.5c1.99,44.2,57.19,120.24,57.19,120.24l21.25-13.03s-37.29-72.36-36.72-116.24c.62-47.858,4.33-108.544,4.33-108.544Z" fill="#263238"/>
      <path id="Path_190400" data-name="Path 190400" d="M6544.83,1132.53l-23.53,14.36-5.87-5.85,25.89-17.26Z"/>
      <path id="Path_190401" data-name="Path 190401" d="M6544.83,1132.53l-23.53,14.36-5.87-5.85,25.89-17.26Z" fill="#fff" opacity="0.4"/>
      <path id="Path_190402" data-name="Path 190402" d="M6434.27,790.243s-15.39,41.977,1.71,119.158l73.73-1.628c.26-11.317-8.03-66.369,1.76-119.924a190.059,190.059,0,0,0-24.82-2.491,265.948,265.948,0,0,0-31.32.668A137.643,137.643,0,0,0,6434.27,790.243Z"/>
      <path id="Path_190403" data-name="Path 190403" d="M6482.86,750.074c-1.76,10.112-3.34,28.642,3.86,35.22,0,0-2.54,10.34-21.27,10.682-14.96.277-10.06-10.014-10.06-10.014,11.19-2.931,10.71-11.268,8.58-19.051Z" fill="#ff8b7b"/>
      <path id="Path_190404" data-name="Path 190404" d="M6475.16,756.928l-11.17,9.965a31.644,31.644,0,0,1,1.07,5.536c4.29-.7,10.1-5.552,10.46-10.063A15.1,15.1,0,0,0,6475.16,756.928Z" opacity="0.2"/>
      <path id="Path_190405" data-name="Path 190405" d="M6495.02,814.555l12.3,8.858c-.54,9.427-.7,18.595-.62,27.192C6499.16,843.017,6494.94,829.063,6495.02,814.555Z" opacity="0.2"/>
      <path id="Path_190406" data-name="Path 190406" d="M6484.03,780.262s-3.53,8.5-20.03,15.729a20.591,20.591,0,0,1,11.6,11.887s12-11.4,15.21-22.8Z" fill="#fff"/>
      <path id="Path_190407" data-name="Path 190407" d="M6451.68,804.8s5.04-7.328,12.32-8.809c-2.55-3.127-5.19-10.063-2.75-13.352a31.028,31.028,0,0,0-6.2,2.361S6445.15,790.945,6451.68,804.8Z" fill="#fff"/>
      <path id="Path_190408" data-name="Path 190408" d="M6450.23,721.121c-6.73,2.882-10.06,20.989-1.3,24.929S6462.96,715.683,6450.23,721.121Z" fill="#263238"/>
      <path id="Path_190409" data-name="Path 190409" d="M6483.74,734.88c-.55,13.677-.18,21.705-6.92,28.853-10.15,10.763-27.13,4.885-30.68-8.679-3.25-12.212-1.76-32.566,11.48-38.232a18.66,18.66,0,0,1,26.12,18.058Z" fill="#ff8b7b"/>
      <path id="Path_190410" data-name="Path 190410" d="M6463.11,739.129c0,1.108-.54,2.019-1.27,2.036s-1.34-.88-1.35-1.987.54-2.019,1.27-2.035S6463.09,738.006,6463.11,739.129Z" fill="#263238"/>
      <path id="Path_190411" data-name="Path 190411" d="M6450.54,739.391c0,1.107-.54,2.019-1.27,2.035s-1.34-.863-1.36-1.986.54-2.019,1.27-2.035S6450.52,738.284,6450.54,739.391Z" fill="#263238"/>
      <path id="Path_190412" data-name="Path 190412" d="M6454.56,739.865a40.235,40.235,0,0,1-5.11,9.623,6.381,6.381,0,0,0,5.32.88Z" fill="#ff5652"/>
      <path id="Path_190413" data-name="Path 190413" d="M6458.08,753.362a9.307,9.307,0,0,0,7.65-3.908.255.255,0,0,0,.04-.119.275.275,0,0,0,0-.126.268.268,0,0,0-.06-.114.305.305,0,0,0-.09-.081.329.329,0,0,0-.24-.039.288.288,0,0,0-.2.137,8.836,8.836,0,0,1-7.12,3.6.333.333,0,0,0-.12.031.345.345,0,0,0-.11.076.4.4,0,0,0-.06.109.274.274,0,0,0-.02.126.31.31,0,0,0,.1.22A.325.325,0,0,0,6458.08,753.362Z" fill="#263238"/>
      <path id="Path_190414" data-name="Path 190414" d="M6466.81,734.995a.679.679,0,0,0,.4-.146.646.646,0,0,0,.1-.912,6.5,6.5,0,0,0-5.37-2.589.647.647,0,0,0-.45.231.655.655,0,0,0,.08.921.673.673,0,0,0,.48.151,5.21,5.21,0,0,1,4.23,2.084.641.641,0,0,0,.23.193A.626.626,0,0,0,6466.81,734.995Z" fill="#263238"/>
      <path id="Path_190415" data-name="Path 190415" d="M6444.94,735.191a.7.7,0,0,0,.35-.1.691.691,0,0,0,.25-.272,5.137,5.137,0,0,1,3.66-3.029.665.665,0,0,0,.43-.262.7.7,0,0,0,.13-.487.724.724,0,0,0-.27-.424.68.68,0,0,0-.48-.129,6.53,6.53,0,0,0-4.61,3.777.7.7,0,0,0-.07.246.713.713,0,0,0,.04.252.612.612,0,0,0,.13.217.645.645,0,0,0,.21.148A.608.608,0,0,0,6444.94,735.191Z" fill="#263238"/>
      <path id="Path_190416" data-name="Path 190416" d="M6513.83,797.572c3.07,4.429,5.78,8.76,8.56,13.222s5.36,8.956,7.91,13.515a256.776,256.776,0,0,1,13.81,28.576c.52,1.222.98,2.524,1.45,3.794l.72,1.922.36.977.42,1.335a29.562,29.562,0,0,1,1.11,10.828,41.121,41.121,0,0,1-6.21,17.911,70.932,70.932,0,0,1-10.6,13.255c-1.93,1.953-3.99,3.761-6.07,5.5a76.78,76.78,0,0,1-6.6,4.885l-6.62-7.946c1.45-1.628,3.09-3.647,4.56-5.52s2.9-3.875,4.25-5.829a71.022,71.022,0,0,0,6.75-11.952,26.95,26.95,0,0,0,2.5-11.137,12.871,12.871,0,0,0-.92-4.283l-1.3-2.9c-.5-1.075-.96-2.166-1.51-3.257-4.2-8.711-9.06-17.374-14.15-25.938s-10.44-17.163-15.73-25.386Z" fill="#ff8b7b"/>
      <path id="Path_190417" data-name="Path 190417" d="M6511.47,787.884c12.88,2.784,31.41,42.515,31.41,42.515l-34.51,16.836a155.714,155.714,0,0,1-15.21-29.895C6487.16,800.552,6497.67,784.888,6511.47,787.884Z"/>
      <path id="Path_190418" data-name="Path 190418" d="M6499.21,890.058l34.66,102.4a16.044,16.044,0,0,1-10.01,20.289l-233.03,79a16.034,16.034,0,0,1-20.28-10.04L6235.9,979.337a15.5,15.5,0,0,1-.82-6.041,16.075,16.075,0,0,1,10.83-14.248l233.07-79a16.024,16.024,0,0,1,17.25,4.722A15.624,15.624,0,0,1,6499.21,890.058Z"/>
      <path id="Path_190419" data-name="Path 190419" d="M6499.21,890.058l34.66,102.4a16.044,16.044,0,0,1-10.01,20.289l-233.03,79a16.034,16.034,0,0,1-20.28-10.04L6235.9,979.337a15.5,15.5,0,0,1-.82-6.041,16.075,16.075,0,0,1,10.83-14.248l233.07-79a16.024,16.024,0,0,1,17.25,4.722A15.624,15.624,0,0,1,6499.21,890.058Z" fill="#fff" opacity="0.8"/>
      <path id="Path_190420" data-name="Path 190420" d="M6496.16,884.765l-96.41,86.219a48.249,48.249,0,0,1-35.82,12.13L6235,973.345a16.034,16.034,0,0,1,10.83-14.248l233.07-79.005a16.027,16.027,0,0,1,17.26,4.673Z" opacity="0.6"/>
      <path id="Path_190421" data-name="Path 190421" d="M6515.55,903.443l-14.81.1,9.13,14.964s10.55-2.556,11.53-7.865Z" fill="#ff8b7b"/>
      <path id="Path_190422" data-name="Path 190422" d="M6491.47,912.318l8.13,12.033,10.27-5.846-9.13-14.964Z" fill="#ff8b7b"/>
      <path id="Path_190423" data-name="Path 190423" d="M6493.07,723.922c3.25,8.923-6.6,29.586-12.33,29.2s-7.29-21.868-4.04-27.209c-3.09,1.433-32.56,1.482-32.42-1.628.75-11.3,20.8-15.4,42.78-9.77C6492.77,714.233,6494.91,715.8,6493.07,723.922Z" fill="#263238"/>
      <path id="Path_190424" data-name="Path 190424" d="M6490.22,749.781a12.9,12.9,0,0,1-7.98,5.911c-4.43,1.074-6.51-2.915-5.11-7.018,1.22-3.7,5-8.7,9.39-7.946S6492.37,746.15,6490.22,749.781Z" fill="#ff8b7b"/>
    </g>
    <g id="Group_99937" data-name="Group 99937" transform="translate(818 -1852)">
      <circle id="Ellipse_339" data-name="Ellipse 339" cx="46.125" cy="46.125" r="46.125" transform="translate(4767.875 10084.874)" fill="none" stroke="#292929" stroke-linecap="round" stroke-linejoin="round" stroke-width="4.25"/>
      <path id="Path_190489" data-name="Path 190489" d="M6296.37,771.75l-20.5,20.5L6265.62,782" transform="translate(-1467 9349)" fill="none" stroke="#292929" stroke-linecap="round" stroke-linejoin="round" stroke-width="4.25"/>
    </g>
  </g>
</svg>
