<svg xmlns="http://www.w3.org/2000/svg" width="24" height="24" viewBox="0 0 24 24">
  <g id="open" transform="translate(-1169 -384)">
    <rect id="Rectangle_40376" data-name="Rectangle 40376" width="24" height="24" transform="translate(1169 384)" fill="none"/>
    <g id="Group_100314" data-name="Group 100314" transform="translate(1171.873 389.988)">
      <path id="Path_197864" data-name="Path 197864" d="M19.7,10.475c.275.386.413.579.413.865s-.138.479-.413.865c-1.237,1.735-4.4,5.475-8.644,5.475S3.65,13.94,2.413,12.2C2.138,11.819,2,11.626,2,11.34s.138-.479.413-.865C3.65,8.74,6.81,5,11.057,5S18.464,8.74,19.7,10.475Z" transform="translate(-2 -5)" fill="none" stroke="#141b34" stroke-width="1.3"/>
      <path id="Path_197865" data-name="Path 197865" d="M14.434,11.717a2.717,2.717,0,1,0-2.717,2.717A2.717,2.717,0,0,0,14.434,11.717Z" transform="translate(-2.66 -5.377)" fill="none" stroke="#141b34" stroke-width="1.3"/>
    </g>
  </g>
</svg>
